<?xml version="1.0" encoding="UTF-8" standalone="no"?>
<svg width="24px" height="24px" viewBox="0 0 24 24" version="1.1" xmlns="http://www.w3.org/2000/svg" xmlns:xlink="http://www.w3.org/1999/xlink">
    <!-- Generator: Sketch 40.3 (33839) - http://www.bohemiancoding.com/sketch -->
    <title>icon / mag glass</title>
    <desc>Created with Sketch.</desc>
    <defs></defs>
    <g id="Symbols" stroke="none" stroke-width="1" fill="none" fill-rule="evenodd">
        <g id="organism-/-main-nav---back" transform="translate(-336.000000, -42.000000)" fill="#FFFFFF">
            <g id="nav-and-back">
                <g id="icon-/-mag-glass" transform="translate(336.000000, 42.000000)">
                    <path d="M15.367666,8.72031751 C15.367666,12.3855975 12.3855975,15.367666 8.72031751,15.367666 C5.05503754,15.367666 2.07316024,12.3855975 2.07316024,8.72031751 C2.07316024,5.05503754 5.05503754,2.07316024 8.72031751,2.07316024 C12.3855975,2.07316024 15.367666,5.05503754 15.367666,8.72031751 M23.3215703,22.2305743 L15.408215,14.3170277 C16.7208913,12.7493903 17.4408263,10.7728207 17.4408263,8.72031751 C17.4408263,3.91182518 13.5288098,0 8.72031751,0 C3.91182518,0 0,3.91182518 0,8.72031751 C0,13.5288098 3.91182518,17.4408263 8.72031751,17.4408263 C10.6066083,17.4408263 12.3911443,16.8530579 13.8975757,15.7381533 L21.8558791,23.6964567 C22.0515469,23.8921245 22.3118634,24 22.5886291,24 C22.865586,24 23.1259025,23.8921245 23.3215703,23.6964567 C23.5172381,23.5005977 23.6253048,23.2404724 23.6253048,22.9635155 C23.6253048,22.6867499 23.5174294,22.4262421 23.3215703,22.2305743" id="mag-glass"></path>
                </g>
            </g>
        </g>
    </g>
</svg>